<?xml version="1.0" encoding="UTF-8"?>
<svg width="20px" height="15px" viewBox="0 0 20 15" version="1.1" xmlns="http://www.w3.org/2000/svg" xmlns:xlink="http://www.w3.org/1999/xlink">
    <!-- Generator: Sketch 49.3 (51167) - http://www.bohemiancoding.com/sketch -->
    <title>验证码 icon</title>
    <desc>Created with Sketch.</desc>
    <defs></defs>
    <g id="Page-1" stroke="none" stroke-width="1" fill="none" fill-rule="evenodd">
        <g id="忘记密码" transform="translate(-64.000000, -178.000000)" fill="#333333" fill-rule="nonzero">
            <path d="M80.9230769,178 L67.0769231,178 C65.3775854,178 64,179.343146 64,181 L64,190 C64,191.656854 65.3775854,193 67.0769231,193 L80.9230769,193 C82.6224146,193 84,191.656854 84,190 L84,181 C84,179.343146 82.6224146,178 80.9230769,178 Z M69.1246154,189.133 L68.2446154,189.133 L68.2446154,183.382 C67.9926793,183.619612 67.7133854,183.827999 67.4123077,184.003 C67.1190091,184.186021 66.8089694,184.342187 66.4861538,184.4695 L66.4861538,183.598 C66.9769231,183.361 67.4076923,183.073 67.7753846,182.7355 C68.1430769,182.398 68.4046154,182.071 68.5569231,181.753 L69.1246154,181.753 L69.1246154,189.133 Z M75.9384615,189.133 L71.2030769,189.133 C71.196168,188.919507 71.2311541,188.706692 71.3061538,188.506 C71.4276923,188.1745 71.62,187.849 71.8846154,187.528 C72.1507692,187.2085 72.5338462,186.8365 73.0353846,186.415 C73.8138462,185.7595 74.34,185.242 74.6138462,184.858 C74.8876923,184.4755 75.0246154,184.114 75.0246154,183.772 C75.0322297,183.433318 74.8971086,183.1064 74.6507692,182.8675 C74.3917977,182.618694 74.0386601,182.485641 73.6753846,182.5 C73.2523077,182.5 72.9138462,182.6305 72.6584615,182.89 C72.4046154,183.151 72.2769231,183.5125 72.2723077,183.973 L71.3692308,183.8785 C71.4307692,183.187 71.6630769,182.659 72.0676923,182.296 C72.4723077,181.933 73.0138462,181.753 73.6953846,181.753 C74.3830769,181.753 74.9261538,181.948 75.3292308,182.3395 C75.7292308,182.731 75.9307692,183.2155 75.9307692,183.7945 C75.9307692,184.0885 75.8707692,184.378 75.7538462,184.6615 C75.6369231,184.945 75.4415385,185.2435 75.1692308,185.5585 C74.8969231,185.8735 74.4446154,186.304 73.8123077,186.85 C73.2846154,187.306 72.9461538,187.615 72.7953846,187.777 C72.6549601,187.927202 72.5307193,188.091061 72.4246154,188.266 L75.9384615,188.266 L75.9384615,189.133 Z M80.8292308,188.5945 C80.3753846,189.043 79.7984615,189.2635 79.0984615,189.2635 C78.4723077,189.2635 77.9476923,189.0715 77.5323077,188.6875 C77.1169231,188.3035 76.8830769,187.804 76.8246154,187.192 L77.7030769,187.072 C77.8030769,187.5835 77.9753846,187.951 78.2184615,188.1775 C78.4615385,188.4025 78.7569231,188.5165 79.1046154,188.5165 C79.52,188.5165 79.8676923,188.3695 80.1538462,188.0755 C80.44,187.783 80.58,187.417 80.58,186.982 C80.5946281,186.602872 80.4527658,186.23385 80.1861538,185.9575 C79.925097,185.689142 79.5591937,185.541858 79.18,185.5525 C79.0138462,185.5525 78.8076923,185.5855 78.56,185.653 L78.6569231,184.861 C79.0646492,184.899068 79.4731142,184.796053 79.8107692,184.57 C80.1107692,184.369 80.2584615,184.06 80.2584615,183.6415 C80.2725052,183.333961 80.1536703,183.034766 79.9308492,182.816661 C79.7080282,182.598555 79.4016316,182.481516 79.0861538,182.494 C78.7666928,182.485071 78.4574726,182.604366 78.2307692,182.824 C78.0030769,183.046 77.8569231,183.3775 77.7907692,183.8185 L76.9123077,183.658 C77.02,183.0535 77.2646154,182.584 77.6461538,182.251 C78.0276923,181.918 78.5015385,181.7515 79.0676923,181.7515 C79.4584615,181.7515 79.8184615,181.837 80.1476923,182.0095 C80.4769231,182.182 80.7276923,182.416 80.9030769,182.7145 C81.0769231,183.013 81.1646154,183.328 81.1646154,183.6625 C81.1646154,183.979 81.08,184.2685 80.9153846,184.5295 C80.7358727,184.801456 80.4801175,185.0175 80.1784615,185.152 C80.6,185.2525 80.9292308,185.461 81.1661538,185.776 C81.3984615,186.0925 81.5184615,186.487 81.5184615,186.9625 C81.5277129,187.575586 81.2785688,188.165524 80.8292308,188.5945 Z" id="验证码-icon"></path>
        </g>
    </g>
</svg>