<?xml version="1.0" encoding="UTF-8"?>
<svg width="20px" height="16px" viewBox="0 0 20 16" version="1.1" xmlns="http://www.w3.org/2000/svg" xmlns:xlink="http://www.w3.org/1999/xlink">
    <!-- Generator: Sketch 49.3 (51167) - http://www.bohemiancoding.com/sketch -->
    <title>查看密码 关 icon</title>
    <desc>Created with Sketch.</desc>
    <defs></defs>
    <g id="Page-1" stroke="none" stroke-width="1" fill="none" fill-rule="evenodd">
        <g id="忘记密码" transform="translate(-290.000000, -237.000000)" fill="#333333" fill-rule="nonzero">
            <path d="M293.262222,250.260925 C291.257778,248.564984 290,246.425541 290,245 C290,242.308443 294.477778,237.080328 300,237.080328 C301.768889,237.080328 303.431111,237.618866 304.873333,238.437986 L306.284444,237 L307.856667,238.599774 L293.714444,253 L292.144444,251.400226 L293.263333,250.260925 L293.262222,250.260925 Z M302.257778,241.101259 C300.511736,240.051744 298.289459,240.33853 296.855754,241.798392 C295.422048,243.258253 295.140401,245.521072 296.171111,247.298968 L302.257778,241.101259 Z M295.86,251.946684 L298.497778,249.260783 C300.117453,249.854174 301.927992,249.441896 303.145152,248.202531 C304.362312,246.963166 304.767203,245.119596 304.184444,243.470372 L307.324444,240.273087 C308.984444,241.868335 310,243.724933 310,245 C310,247.67798 305.522222,252.919672 300,252.919672 C298.523333,252.919672 297.122222,252.546316 295.86,251.946684 Z" id="查看密码-关-icon"></path>
        </g>
    </g>
</svg>