<?xml version="1.0" encoding="UTF-8"?>
<svg width="20px" height="16px" viewBox="0 0 20 16" version="1.1" xmlns="http://www.w3.org/2000/svg" xmlns:xlink="http://www.w3.org/1999/xlink">
    <!-- Generator: Sketch 49.3 (51167) - http://www.bohemiancoding.com/sketch -->
    <title>查看密码 开 icon</title>
    <desc>Created with Sketch.</desc>
    <defs></defs>
    <g id="Page-1" stroke="none" stroke-width="1" fill="none" fill-rule="evenodd">
        <g id="注册页-错误提示-验证码倒计时" transform="translate(-290.000000, -354.000000)" fill="#333333" fill-rule="nonzero">
            <path d="M301.175556,357.589714 C299.838483,357.214456 298.407762,357.501567 297.305885,358.366262 C296.204009,359.230957 295.556865,360.574448 295.555556,362 C295.559315,363.698855 296.478682,365.255449 297.942758,366.041811 C299.406835,366.828174 301.174117,366.714591 302.531636,365.746886 C303.889155,364.779181 304.612984,363.116979 304.411111,361.430857 C303.774647,362.206111 302.754462,362.523903 301.806766,362.242122 C300.85907,361.960341 300.161088,361.131682 300.024946,360.126707 C299.888803,359.121732 300.33996,358.128379 301.176667,357.590857 L301.175556,357.589714 Z M300,370 C294.477778,370 290,364.718857 290,362 C290,359.281143 294.477778,354 300,354 C305.522222,354 310,359.294857 310,362 C310,364.705143 305.522222,370 300,370 Z" id="查看密码-开-icon"></path>
        </g>
    </g>
</svg>