<?xml version="1.0" encoding="UTF-8"?>
<svg width="18px" height="20px" viewBox="0 0 18 20" version="1.1" xmlns="http://www.w3.org/2000/svg" xmlns:xlink="http://www.w3.org/1999/xlink">
    <!-- Generator: Sketch 49.3 (51167) - http://www.bohemiancoding.com/sketch -->
    <title>密码 icon</title>
    <desc>Created with Sketch.</desc>
    <defs></defs>
    <g id="Page-1" stroke="none" stroke-width="1" fill="none" fill-rule="evenodd">
        <g id="忘记密码" transform="translate(-65.000000, -235.000000)" fill="#333333" fill-rule="nonzero">
            <path d="M81.5,255 L66.5,255 C65.6726563,255 65,254.404018 65,253.665179 L65,243.665179 C65,242.928571 65.6726563,242.332589 66.5,242.332589 L81.5,242.332589 C82.3273437,242.332589 83,242.928571 83,243.665179 L83,253.665179 C83,254.404018 82.3273437,255 81.5,255 M74,245.667411 C72.7578125,245.667411 71.75,246.5625 71.75,247.667411 C71.75,248.40625 72.2046875,249.044643 72.875,249.390625 L72.875,251.294643 C72.875,251.868304 73.3789062,252.337054 74,252.337054 C74.6210938,252.337054 75.125,251.870536 75.125,251.294643 L75.125,249.390625 C75.7953125,249.044643 76.25,248.40625 76.25,247.667411 C76.25,246.5625 75.2421875,245.667411 74,245.667411 M74,237 C71.515625,237 69.5,238.790179 69.5,241 L67.25,241 C67.25,237.685268 70.2710938,235 74,235 C77.7289062,235 80.75,237.685268 80.75,241 L78.5,241 C78.5,238.790179 76.484375,237 74,237" id="密码-icon"></path>
        </g>
    </g>
</svg>