<?xml version="1.0" encoding="UTF-8"?>
<svg width="17px" height="20px" viewBox="0 0 17 20" version="1.1" xmlns="http://www.w3.org/2000/svg" xmlns:xlink="http://www.w3.org/1999/xlink">
    <!-- Generator: Sketch 49.3 (51167) - http://www.bohemiancoding.com/sketch -->
    <title>用户 icon</title>
    <desc>Created with Sketch.</desc>
    <defs></defs>
    <g id="Page-1" stroke="none" stroke-width="1" fill="none" fill-rule="evenodd">
        <g id="忘记密码" transform="translate(-65.000000, -116.000000)" fill="#333333" fill-rule="nonzero">
            <path d="M69.8500155,124.706053 C71.3261599,126.165773 73.5460958,126.602432 75.4747236,125.812428 C77.4033514,125.022424 78.6608851,123.161324 78.6609688,121.096912 C78.6610526,119.032499 77.4036699,117.1713 75.4751062,116.381142 C74.2342817,115.872953 72.7657183,115.872953 71.5248938,116.381142 C69.9325785,117.033772 68.7746876,118.429265 68.4383401,120.101066 C68.1019926,121.772867 68.631569,123.500384 69.8500155,124.706053 Z M77.6353969,127.368318 L69.3640162,127.368318 C66.9574975,127.368318 65,129.304431 65,131.684304 C65,134.064177 66.957791,136 69.3640162,136 L77.6356904,136 C80.042209,136 82,134.064177 82,131.684304 C82,129.304431 80.0425025,127.368318 77.6356904,127.368318 L77.6353969,127.368318 Z" id="用户-icon"></path>
        </g>
    </g>
</svg>